<?xml version="1.0" encoding="utf-8"?>
<!-- Generator: Adobe Illustrator 27.3.1, SVG Export Plug-In . SVG Version: 6.00 Build 0)  -->
<svg version="1.1" id="Camada_1" xmlns="http://www.w3.org/2000/svg" xmlns:xlink="http://www.w3.org/1999/xlink" x="0px" y="0px"
	 viewBox="0 0 800 800" style="enable-background:new 0 0 800 800;" xml:space="preserve">
<style type="text/css">
	.st0{fill:#6366F1;}
	.st1{fill:#999999;}
</style>
<g id="outline_color">
	<path class="st0" d="M315.8,750c-22.5,0-40.8-18.2-40.8-40.8V375c0-6.9,5.6-12.5,12.5-12.5H425c6.9,0,12.5,5.6,12.5,12.5v37.5H675
		c6.9,0,12.5,5.6,12.5,12.5v62.5c0,6.9-5.6,12.5-12.5,12.5s-12.5-5.6-12.5-12.5v-50H425c-6.9,0-12.5-5.6-12.5-12.5v-37.5H300v321.8
		c0,8.7,7.1,15.8,15.8,15.8c6.9,0,12.5,5.6,12.5,12.5S322.7,750,315.8,750z"/>
	<path class="st0" d="M737.5,750H315.8c-6.9,0-12.5-5.6-12.5-12.5s5.6-12.5,12.5-12.5c8.6,0,15.6-7,15.6-15.6c0,0,0-0.1,0-0.1V487.5
		c0-6.9,5.6-12.5,12.5-12.5h393.6c6.9,0,12.5,5.6,12.5,12.5v250C750,744.4,744.4,750,737.5,750z M353.2,725H725V500H356.4v209.2
		C356.4,714.7,355.3,720,353.2,725z"/>
	<path class="st1" d="M237.5,675c-3.2,0-6.3-1.2-8.6-3.4c-5.8-5.6-10.5-12.3-13.9-19.6L57,297.9c-14-31.5,0-68.4,31.5-82.5
		l252.1-112.5c6.7-1.4,13.4,2.8,14.8,9.6c1,4.7-0.8,9.6-4.6,12.5L98.7,237.5c-19,8.3-27.6,30.4-19.3,49.4c0.1,0.2,0.2,0.4,0.3,0.6
		l157.8,354c2,4.4,4.8,8.4,8.4,11.8c5.1,4.6,5.5,12.5,0.8,17.7C244.4,673.5,241,675,237.5,675z"/>
	<path class="st1" d="M689.1,387.5c-1.1,0.2-2.2,0.2-3.2,0c-6.6-1.8-10.5-8.6-8.8-15.2l46.6-170.9c2.6-9.6,1.3-19.9-3.6-28.5
		c-4.9-8.7-13.1-15-22.8-17.5L408.1,76c-19.9-5.2-40.3,6.7-45.6,26.5L300,328.2c-2,6.6-9,10.3-15.6,8.3c-6.3-1.9-10-8.4-8.5-14.8
		l61.6-225.9c9.1-33.3,43.4-53,76.7-43.9c0,0,0,0,0,0l289.6,79.2c15.9,4.3,29.4,14.8,37.5,29.1c8.3,14.4,10.5,31.5,6.1,47.5
		l-46.4,170.4C699.7,383.7,694.8,387.5,689.1,387.5z"/>
</g>
</svg>
