<?xml version="1.0" encoding="utf-8"?>
<!-- Generator: Adobe Illustrator 27.3.1, SVG Export Plug-In . SVG Version: 6.00 Build 0)  -->
<svg version="1.1" id="Camada_1" xmlns="http://www.w3.org/2000/svg" xmlns:xlink="http://www.w3.org/1999/xlink" x="0px" y="0px"
	 viewBox="0 0 800 800" style="enable-background:new 0 0 800 800;" xml:space="preserve">
<style type="text/css">
	.st0{fill:#6366F1;}
	.st1{fill:#999999;}
	.st2{fill:#666666;}
</style>
<g id="outline_color">
	<path class="st0" d="M275,750c-2.2,0-4.3-0.5-6.2-1.6l-112.5-62.5c-6-3.4-8.1-11-4.7-17c1.1-2,2.7-3.6,4.7-4.7l112.5-62.5
		c6-3.5,13.6-1.4,17.1,4.5c0.3,0.5,0.6,1.1,0.8,1.6c8.8,21.3,13.3,44.2,13.4,67.2c-0.1,23.1-4.6,45.9-13.2,67.2
		C284.8,747,280.1,750.1,275,750z M187.5,675l80,44.5c4.7-14.4,7.2-29.4,7.5-44.5c0-15.1-2.3-30.1-6.8-44.5L187.5,675z"/>
	<path class="st0" d="M737.5,750H275c-4.2,0-8-2.1-10.4-5.5c-2.4-3.5-2.8-7.9-1.2-11.7c7.6-18.3,11.5-37.9,11.6-57.8
		c0-19.8-3.9-39.4-11.5-57.8c-1.6-3.9-1.1-8.3,1.2-11.8c2.3-3.4,6.1-5.5,10.2-5.5h462.5c6.9,0,12.5,5.6,12.5,12.5v125
		C750,744.4,744.4,750,737.5,750z M292.8,725H725V625H292.8c4.8,16.2,7.3,33.1,7.2,50C300,691.9,297.5,708.8,292.8,725z"/>
	<path class="st0" d="M587.5,700H300c-6.9,0-12.5-5.6-12.5-12.5S293.1,675,300,675h287.5c6.9,0,12.5,5.6,12.5,12.5
		S594.4,700,587.5,700z"/>
	<path class="st0" d="M650,737.5c-6.9,0-12.5-5.6-12.5-12.5V625c0-6.9,5.6-12.5,12.5-12.5s12.5,5.6,12.5,12.5v100
		C662.5,731.9,656.9,737.5,650,737.5z"/>
	<path class="st1" d="M203.4,607.6c-4.9,0-9.4-2.9-11.4-7.4L57,297.9c-14-31.5,0-68.4,31.5-82.5l252.1-112.5
		c6.7-1.4,13.4,2.8,14.8,9.6c1,4.7-0.8,9.6-4.6,12.5L98.7,237.5c-19,8.3-27.6,30.4-19.3,49.4c0.1,0.2,0.2,0.4,0.3,0.6l135,302.5
		c2.8,6.3,0,13.7-6.2,16.5C206.9,607.2,205.1,607.6,203.4,607.6z"/>
	<path class="st2" d="M209.2,283.5c-5,0-9.5-2.9-11.5-7.5c-2.8-6.3,0-13.7,6.4-16.5c0,0,0,0,0,0l102.8-45.9
		c6.3-2.8,13.7,0.1,16.5,6.4c2.8,6.3-0.1,13.7-6.4,16.5l-102.7,45.9C212.7,283.1,211,283.5,209.2,283.5z"/>
	<path class="st2" d="M205.5,367.2c-6.9,0.2-12.6-5.3-12.8-12.2c-0.1-5,2.8-9.6,7.3-11.7l84.8-37.5c6.5-2.4,13.7,0.8,16.1,7.3
		c2.2,5.9-0.3,12.5-5.9,15.5l-84.8,37.5C208.8,366.8,207.1,367.2,205.5,367.2z"/>
	<path class="st2" d="M236.1,435.6c-6.9,0-12.5-5.7-12.4-12.6c0-4.9,2.9-9.3,7.3-11.3l28.6-12.5c6.5-2.4,13.7,0.8,16.1,7.3
		c2.2,5.9-0.3,12.5-5.9,15.5l-28.6,12.5C239.6,435.2,237.9,435.6,236.1,435.6z"/>
	<path class="st1" d="M637.5,575c-1.1,0.2-2.2,0.2-3.2,0c-6.6-1.8-10.5-8.6-8.8-15.2l98.2-358.4c2.6-9.6,1.2-19.9-3.8-28.5
		c-4.8-8.7-13-15-22.6-17.5L408.1,76c-19.9-5.2-40.3,6.7-45.6,26.5L259.6,476.1c-2.6,9.6-1.3,19.9,3.6,28.5c4.9,8.6,13,15,22.6,17.6
		L389,550c6.9,1.8,11,8.8,9.2,15.8s-8.8,11-15.8,9.2l-103.1-28.8c-15.9-4.4-29.3-14.9-37.5-29.2c-8.2-14.4-10.4-31.4-5.9-47.4
		L337.5,95.9c9.1-33.3,43.4-53,76.7-43.9c0,0,0,0,0,0l289.6,79.2c33.3,9.1,52.9,43.4,43.9,76.6L650,565.8
		C648.5,571.4,643.3,575.2,637.5,575z"/>
	<path class="st2" d="M593.2,217c-1.1,0.1-2.3,0.1-3.4,0l-108.5-29.5c-6.9-1.7-11.1-8.7-9.4-15.6c1.7-6.9,8.7-11.1,15.6-9.4
		L596,192.2c6.9,0.9,11.8,7.2,10.9,14.1c-0.9,6.9-7.2,11.8-14.1,10.9L593.2,217z"/>
	<path class="st2" d="M609.6,299.2c-1.1,0.1-2.3,0.1-3.4,0L425,250c-6.9-1.9-10.9-9.1-9-16c1.9-6.9,9.1-10.9,16-9l180.5,50
		c6.9,0.9,11.8,7.2,10.9,14.1c-0.9,6.9-7.2,11.8-14.1,10.9L609.6,299.2z"/>
	<path class="st2" d="M589.8,371.6c-1.1,0.2-2.2,0.2-3.2,0l-180.9-50c-6.7-1.5-10.9-8.3-9.4-15c1.5-6.7,8.3-10.9,15-9.4
		c0.4,0.1,0.9,0.2,1.3,0.4l180.9,50c6.6,1.8,10.5,8.6,8.8,15.2C600.4,368.2,595.4,371.8,589.8,371.6z"/>
	<path class="st2" d="M570,444c-1.1,0.2-2.3,0.2-3.4,0l-180.9-50c-6.7-1.8-10.6-8.7-8.8-15.4c1.8-6.7,8.7-10.6,15.4-8.8l0,0
		l180.9,50c6.7,1.8,10.6,8.7,8.8,15.4c0,0,0,0,0,0C580.4,440.5,575.5,444,570,444z"/>
</g>
</svg>
